<svg width="19" height="19" viewBox="0 0 19 19" fill="none" xmlns="http://www.w3.org/2000/svg">
<path fill-rule="evenodd" clip-rule="evenodd" d="M17.071 0.928986C17.3362 0.928986 17.5906 1.03434 17.7781 1.22188C17.9656 1.40942 18.071 1.66377 18.071 1.92899V7.58599C18.071 7.74233 18.0344 7.89651 17.9641 8.03614C17.8937 8.17577 17.7916 8.29696 17.666 8.38999L10.468 13.71L11.414 14.657C11.6015 14.8445 11.7068 15.0988 11.7068 15.364C11.7068 15.6292 11.6015 15.8835 11.414 16.071L9.99998 17.485C9.85156 17.6333 9.66026 17.7311 9.45316 17.7647C9.24605 17.7982 9.03364 17.7658 8.84598 17.672L6.66198 16.581L5.04998 18.192C4.86246 18.3795 4.60815 18.4848 4.34298 18.4848C4.07782 18.4848 3.82351 18.3795 3.63598 18.192L0.807984 15.364C0.620513 15.1765 0.515198 14.9221 0.515198 14.657C0.515198 14.3918 0.620513 14.1375 0.807984 13.95L2.41898 12.338L1.32798 10.154C1.23416 9.96633 1.20173 9.75392 1.23529 9.54681C1.26885 9.33971 1.3667 9.14841 1.51498 8.99999L2.92898 7.58599C3.11651 7.39852 3.37082 7.2932 3.63598 7.2932C3.90115 7.2932 4.15546 7.39852 4.34298 7.58599L5.28998 8.53199L10.61 1.33399C10.703 1.20833 10.8242 1.10623 10.9638 1.0359C11.1035 0.965559 11.2576 0.928943 11.414 0.928986H17.071Z" fill="#FF4646"/>
</svg>
